<svg id="SvgjsSvg1116" width="288" height="288" xmlns="http://www.w3.org/2000/svg" version="1.1" xmlns:xlink="http://www.w3.org/1999/xlink" xmlns:svgjs="http://svgjs.com/svgjs"><defs id="SvgjsDefs1117"></defs><g id="SvgjsG1118"><svg xmlns="http://www.w3.org/2000/svg" viewBox="0 0 64 64" width="288" height="288"><circle cx="32" cy="32" r="32" fill="#134386" class="color77c68d svgShape"></circle><path fill="#ffffff" d="M19.74 31.36h1.47c.42 0 .75-.34.75-.75v-3.99c0-.42-.33-.75-.75-.75h-1.47c-.41 0-.75.33-.75.75v3.99c0 .42.34.75.75.75zm2.28-5.88-.09-2.74c0-.12.05-.22.15-.28.1-.07.22-.07.32-.02.11.05 2.75 1.33 4.73-.84.08-.09.21-.13.33-.09.02 0 2.05.61 3.11 0 .29-.17.48-.42.56-.75.03-.13.13-.22.25-.24.13-.03.25.02.32.13.08.11 1.94 2.61 4.32 1.2.14-.09.32-.05.42.09.08.1 1.96 2.47 4.9 1.29.11-.04.22-.03.3.03.09.06.15.16.15.27v1.9c.21-.13.46-.2.73-.2h.91v-2.28c0-3.05-1.19-5.93-3.35-8.08A11.337 11.337 0 0 0 32 11.52c-6.31 0-11.44 5.13-11.44 11.43v2.28h.64c.31-.01.58.08.82.25zm19.78.96v4.35c.09.34.38.57.73.57H44c.42 0 .75-.33.75-.75v-3.99c0-.42-.34-.75-.75-.75h-1.47a.73.73 0 0 0-.73.57zm-.74 9.09c1.04 0 1.88-.84 1.88-1.87v-1.65h-.41c-.26 0-.52-.08-.73-.2 0 1.31-.27 2.57-.74 3.72zm-8.92-.78a.52.52 0 0 0-.52.51v1.2c0 .28.23.52.52.52h2.67c.28 0 .51-.23.51-.52v-1.2c0-.28-.23-.51-.51-.51h-2.67z" class="colorfff svgShape"></path><path fill="#ffffff" d="M36.11 22.53c-2.11 1.08-3.85-.33-4.57-1.08-.15.26-.37.47-.65.63-1.1.63-2.84.26-3.42.11-1.75 1.76-3.92 1.34-4.87 1.02l.25 8.37c0 2.52 1.04 4.98 2.84 6.76a9.19 9.19 0 0 0 2.95 1.95c.03.01.07.01.09.03.01 0 .01 0 .01.01.01 0 .03.01.03.01 1.08.42 2.23.63 3.4.61 3.36-.07 6.31-2 7.84-4.78h-4.05v.28c0 .64-.52 1.16-1.16 1.16h-2.67c-.64 0-1.16-.52-1.16-1.16v-1.2c0-.64.52-1.16 1.16-1.16h2.67c.64 0 1.16.52 1.16 1.16v.28h4.37c.52-1.14.81-2.41.81-3.73v-7.83c-2.61.81-4.46-.83-5.03-1.44z" class="colorfff svgShape"></path><path fill="#ffffff" d="M20.1 34.93c.11.01.2.07.26.17.05.09.05.21.01.31-.17.33-.26.71-.26 1.1 0 .48.14.95.4 1.35.45.67 1.2 1.07 2.01 1.07.28 0 .56-.05.82-.15.11-.04.22-.02.32.05.09.07.13.19.12.3-.01.03-.01.08-.01.12 0 .26.04.52.12.75a2.44 2.44 0 0 0 2.29 1.67c.74 0 1.44-.35 1.9-.93-1.03-.47-2-1.12-2.84-1.94-.97-.95-1.73-2.08-2.25-3.31a10.03 10.03 0 0 1-.79-3.9c-.25.26-.6.42-.99.42h-1.47c-.64 0-1.18-.44-1.34-1.04-.36.43-.57.97-.57 1.55 0 1.29.99 2.35 2.27 2.41zm23.49-2.92v1.65a2.53 2.53 0 0 1-2.53 2.52h-.31a9.89 9.89 0 0 1-4.81 4.59c.46.56 1.14.9 1.88.9 1.33 0 2.41-1.08 2.41-2.41v-.13c-.02-.11.03-.22.12-.3.09-.07.21-.09.32-.05.25.1.53.15.81.15.82 0 1.57-.41 2.01-1.08.26-.4.41-.87.41-1.34 0-.38-.09-.75-.27-1.1-.05-.1-.05-.22.01-.31.05-.1.15-.16.26-.17a2.398 2.398 0 0 0 2.27-2.41c0-.69-.3-1.34-.79-1.79-.07.71-.66 1.28-1.39 1.28h-.4zM28.95 41.1v2.47c0 .81.32 1.57.9 2.15.58.58 1.34.89 2.15.89 1.68 0 3.04-1.36 3.04-3.03v-2.45c-.9.3-1.86.47-2.85.49H32a9.813 9.813 0 0 1-3.05-.52z" class="colorfff svgShape"></path><path fill="#ffffff" d="M26.69 43.45c-.28.49-.44 1.04-.44 1.62 0 1.78 1.45 3.23 3.24 3.23.86 0 1.67-.33 2.28-.93a.32.32 0 0 1 .46 0c.61.6 1.41.93 2.27.93 1.79 0 3.25-1.45 3.25-3.23 0-.58-.16-1.13-.44-1.62H35.7v.12a3.7 3.7 0 0 1-3.69 3.69c-.98 0-1.91-.38-2.61-1.08a3.67 3.67 0 0 1-1.08-2.61v-.12h-1.63z" class="colorfff svgShape"></path><path fill="#ffffff" d="M40.01 43.45h-1.97a3.894 3.894 0 0 1-6.05 4.6c-.69.59-1.57.91-2.51.91-2.14 0-3.89-1.74-3.89-3.89 0-.57.13-1.12.35-1.62h-1.98c-3.18 0-5.76 2.58-5.76 5.76v3.28h27.58v-3.28c.01-3.17-2.58-5.76-5.77-5.76z" class="colorfff svgShape"></path></svg></g></svg>